<svg width="1033" height="767" viewBox="0 0 1233 1167" fill="none" xmlns="http://www.w3.org/2000/svg">
<path d="M1413.14 386.242C1400.36 476.334 1358.08 560.556 1281.63 612.779C1185.26 678.61 1104.44 703.357 1061.6 820.85C1018.5 939.128 1005.52 1063.84 883.507 1130.86C769.678 1193.51 592.71 1174.37 531.103 1047.31C472.563 926.53 531.552 790.57 529.683 664.591C528.823 606.499 509.197 547.996 455.928 518.09C378.396 474.352 284.193 511.735 203.26 481.156C121.019 450.315 56.4593 372.747 20.7591 294.992C-15.8756 214.993 -4.69831 128.603 80.7952 88.6782C223.26 22.0254 389.2 9.61448 544.113 2.73612C710.352 -4.66559 874.012 12.1565 1037.26 42.5857C1128.51 59.5947 1228.29 67.7441 1307.65 120.491C1387.83 173.798 1423.53 273.235 1415.42 367.214C1414.9 373.42 1414.15 379.775 1413.14 386.242Z" stroke="#E0E0E0" stroke-width="1.19228" stroke-miterlimit="10"/>
<path d="M1255.76 138.47C1328.17 187.292 1360.13 277.346 1352.95 362.466C1352.47 368.185 1351.83 374.017 1351.01 379.886C1339.8 461.566 1301.85 537.864 1234.41 586.087C1149.11 647.17 1079.46 673.524 1039.73 780.812C999.129 889.782 982.307 998.228 872.665 1055.24C770.312 1108.43 612.708 1090.64 556.971 976.21C503.962 867.427 555.251 745.299 552.111 632.292C550.728 580.255 532.597 527.92 484.486 501.117C466.697 491.502 447.255 485.326 427.179 482.912C371.105 475.099 310.471 487.846 256.491 467.435C182.511 439.548 124.643 369.867 92.7562 299.663C60.0092 227.739 70.3267 150.732 146.363 113.723C275.743 50.846 429.459 36.9772 572.036 31.2203C721.005 25.3139 867.656 40.1921 1013.75 67.855C1095.39 83.3687 1184.81 91.0321 1255.76 138.47Z" stroke="#E0E0E0" stroke-width="1.19228" stroke-miterlimit="10"/>
<path d="M1203.8 156.602C1268.58 200.638 1296.69 281.571 1290.64 358.018C1290.23 363.177 1289.67 368.373 1288.99 373.644C1279.16 446.988 1245.7 515.323 1187.31 559.584C1113 615.882 1054.53 643.806 1017.9 740.926C979.879 840.587 959.169 932.922 861.9 979.762C771.061 1023.5 632.746 1007.05 582.878 905.296C535.44 808.476 579.14 700.142 574.654 600.368C572.71 554.388 555.962 508.258 513.122 484.483C497.221 475.978 479.882 470.49 461.983 468.296C411.891 461.306 357.985 472.371 309.912 454.091C244.231 429.119 193.017 367.177 164.905 304.561C136.196 240.675 145.878 173.05 212.194 139.032C328.304 79.5193 469.721 64.2673 600.223 59.744C731.921 55.2581 861.564 68.2298 990.72 93.0517C1062.68 107.107 1141.48 114.098 1203.8 156.602Z" stroke="#E0E0E0" stroke-width="1.19228" stroke-miterlimit="10"/>
<path d="M1152.02 174.435C1209.15 213.799 1233.48 285.536 1228.43 353.273C1228.06 357.833 1227.61 362.431 1227.01 367.104C1218.68 432.112 1189.63 492.522 1140.25 532.783C1076.96 584.37 1029.93 613.94 996.14 700.742C960.926 791.207 936.329 867.243 851.209 903.953C771.958 938.195 652.895 923.204 608.896 834.085C566.99 749.189 602.878 654.649 597.233 567.997C594.766 528.11 579.626 488.148 541.832 467.55C527.866 460.137 512.664 455.336 496.973 453.383C452.974 447.14 405.611 456.56 363.481 440.374C306.061 418.355 261.539 364.151 237.203 309.535C212.306 253.723 221.054 195.369 277.95 164.379C380.901 108.007 509.982 91.4089 628.111 88.2314C741.856 85.6124 855.535 95.7566 967.02 118.474C1029.78 130.885 1098.12 137.277 1152.02 174.435Z" stroke="#E0E0E0" stroke-width="1.19228" stroke-miterlimit="10"/>
<path d="M1100.17 192.415C1149.59 227.181 1170.15 289.609 1166.08 348.674C1165.82 352.636 1165.41 356.673 1164.92 360.711C1158.08 417.345 1133.44 469.905 1093.11 506.091C1040.77 553.043 1005.04 584.108 974.27 660.704C941.673 741.899 913.337 801.673 840.404 828.327C772.854 853.037 672.894 839.542 634.801 762.983C598.428 690.087 626.427 609.416 619.848 535.81C616.783 502.166 603.213 468.222 570.578 450.69C558.479 444.379 545.352 440.277 531.812 438.578C493.907 433.12 453.309 440.896 416.899 426.765C367.816 407.7 329.947 361.234 309.425 314.132C288.416 266.358 296.341 217.162 343.742 189.387C433.721 136.603 550.205 118.66 656.371 116.716C752.899 115.093 849.311 124.17 943.841 143.781C996.849 154.659 1054.72 160.341 1100.17 192.415Z" stroke="#E0E0E0" stroke-width="1.19228" stroke-miterlimit="10"/>
<path d="M1048.29 210.395C1090.01 240.526 1106.83 293.721 1103.73 344.075C1103.73 347.439 1103.24 350.878 1102.83 354.355C1097.48 402.616 1077.22 447.362 1045.93 479.437C1004.59 521.791 980.103 554.201 952.477 620.667C922.571 692.591 890.871 736.029 829.676 752.702C774.051 767.879 693.006 755.73 660.745 691.918C629.942 630.947 650.203 564.145 642.241 503.623C638.503 475.885 626.54 448.26 599.064 433.83C588.881 428.63 577.88 425.216 566.541 423.737C534.692 419.101 500.524 425.195 470.207 413.158C429.348 397.046 398.134 358.467 381.387 318.954C364.639 279.441 371.368 238.843 409.274 214.545C486.319 164.864 590.429 145.873 684.408 145.387C763.745 144.659 842.922 152.644 920.515 169.2C963.954 178.433 1011.28 183.704 1048.29 210.395Z" stroke="#E0E0E0" stroke-width="1.19228" stroke-miterlimit="10"/>
<path d="M996.438 228.375C1030.46 253.908 1043.5 297.794 1041.3 339.438C1041.3 342.242 1040.92 345.083 1040.66 347.962C1036.92 386.138 1022.36 422.451 998.681 452.632C968.289 490.575 955.018 524.294 930.42 580.48C902.982 643.096 868.665 670.198 818.685 676.927C775.396 682.721 712.818 671.843 686.463 620.853C661.192 571.845 673.716 518.874 664.557 471.324C660.37 449.642 649.791 428.222 627.474 416.857C619.184 412.763 610.282 410.048 601.119 408.82C575.4 405.082 547.812 409.381 523.401 399.437C490.878 386.316 466.468 355.289 453.384 323.626C440.3 291.963 446.319 260.449 474.841 239.627C539.064 192.75 630.539 172.9 712.369 173.61C774.572 173.768 836.571 180.725 897.262 194.357C930.906 202.208 967.878 206.955 996.438 228.375Z" stroke="#E0E0E0" stroke-width="1.19228" stroke-miterlimit="10"/>
<path d="M944.553 246.319C970.72 267.328 980.178 301.869 979.057 334.803C979.057 337.046 979.057 339.289 978.683 341.532C975.94 371.344 966.702 400.193 951.618 426.054C932.291 459.698 930.161 494.576 908.666 540.556C883.769 593.863 846.461 612.181 807.995 601.414C777.715 604.031 732.969 588.256 712.483 549.715C692.745 512.669 697.53 473.567 687.138 439.175C682.39 423.586 673.344 408.334 656.185 400.11C649.81 397.1 643.017 395.071 636.036 394.092C616.373 390.989 595.401 393.718 576.897 385.905C552.711 375.662 534.917 352.448 525.646 328.486C516.375 304.523 521.347 281.683 540.599 264.936C591.999 220.151 670.839 200.002 740.557 202.208C785.475 203.093 830.158 208.948 873.788 219.665C898.124 225.946 924.404 230.282 944.553 246.319Z" stroke="#E0E0E0" stroke-width="1.19228" stroke-miterlimit="10"/>
<path d="M892.703 264.337C911.207 280.898 916.852 305.981 916.703 330.243C916.703 331.887 916.703 333.532 916.703 335.177C915.806 358.354 909.226 380.858 904.553 399.437C896.778 429.53 905.226 464.744 886.909 500.557C864.479 544.556 823.845 547.696 797.191 525.79C772.569 517.663 751.695 500.943 738.389 478.688C724.183 453.604 721.342 428.334 709.604 407.026C704.275 396.518 695.518 388.144 684.782 383.288C680.3 381.397 675.606 380.054 670.801 379.288C657.269 377.008 642.839 378.055 630.279 372.335C614.354 365.046 603.251 349.607 597.756 333.308C595.169 325.998 594.603 318.125 596.116 310.519C597.629 302.914 601.166 295.857 606.354 290.094C644.073 246.394 711.025 226.544 768.594 230.731C796.355 232.153 823.843 236.922 850.461 244.936C865.227 249.721 880.853 253.796 892.703 264.337Z" stroke="#E0E0E0" stroke-width="1.19228" stroke-miterlimit="10"/>
<path d="M836.11 370.761C841.145 392.72 857.194 422.854 843.214 444.396C824.691 473.359 784.114 463.301 770.595 435.555C755.234 404.168 736.343 371.017 695.704 363.53C688.787 362.261 681.526 361.775 675.399 358.658C662.142 351.951 659.056 334.951 664.554 322.17C681.152 283.797 737.876 268.618 779.688 275.386C795.147 277.896 810.822 283.668 820.565 294.851C839.565 316.463 830.376 345.822 836.11 370.761Z" stroke="#E0E0E0" stroke-width="1.19228" stroke-miterlimit="10"/>
</svg>
